<svg width="36" height="36" viewBox="0 0 36 36" fill="none" xmlns="http://www.w3.org/2000/svg">
<circle cx="18" cy="18" r="18" fill="#A2190A"/>
<path d="M23.9242 16.4153L23.1605 11.6837C23.1209 11.4386 22.9985 11.2283 22.8244 11.0798C22.6514 10.9324 22.4238 10.8452 22.1742 10.8452H13.8247C13.5745 10.8452 13.3475 10.9324 13.1745 11.0798C13.0004 11.2283 12.878 11.4386 12.8384 11.6837L12.0747 16.4153H23.9242ZM16.7825 22.7721H19.2169C19.3117 22.0351 19.6506 21.3738 20.1498 20.8736C20.7427 20.2796 21.562 19.912 22.4662 19.912C23.371 19.912 24.1898 20.2796 24.7827 20.8736C25.3756 21.4676 25.7426 22.2885 25.7426 23.1944C25.7426 24.1009 25.3756 24.9212 24.7827 25.5152C24.1898 26.1092 23.3705 26.4769 22.4662 26.4769C21.5615 26.4769 20.7427 26.1092 20.1498 25.5152C19.6506 25.0151 19.3117 24.3543 19.2169 23.6167H16.7825C16.6878 24.3537 16.3489 25.0151 15.8497 25.5152C15.2568 26.1092 14.4374 26.4769 13.5332 26.4769C12.6284 26.4769 11.8096 26.1092 11.2167 25.5152C10.6238 24.9212 10.2569 24.1003 10.2569 23.1944C10.2569 22.288 10.6238 21.4676 11.2167 20.8736C11.8096 20.2796 12.629 19.912 13.5332 19.912C14.438 19.912 15.2568 20.2796 15.8497 20.8736C16.3489 21.3738 16.6878 22.0346 16.7825 22.7721ZM20.0346 23.1442C20.0368 23.1607 20.0379 23.1779 20.0379 23.195C20.0379 23.2121 20.0368 23.2292 20.0346 23.2458C20.0478 23.8988 20.3173 24.4884 20.7465 24.9185C21.1868 25.3595 21.7951 25.6322 22.4668 25.6322C23.1385 25.6322 23.7468 25.3595 24.1871 24.9185C24.6268 24.4774 24.8995 23.8685 24.8995 23.195C24.8995 22.522 24.6273 21.9126 24.1871 21.4715C23.7468 21.0304 23.1385 20.7577 22.4668 20.7577C21.7951 20.7577 21.1868 21.0304 20.7465 21.4715C20.3173 21.9015 20.0478 22.4911 20.0346 23.1442ZM15.2535 21.4715C14.8132 21.0304 14.2049 20.7577 13.5332 20.7577C12.8615 20.7577 12.2532 21.0304 11.8129 21.4715C11.3732 21.9126 11.1005 22.5215 11.1005 23.195C11.1005 23.8679 11.3727 24.4774 11.8129 24.9185C12.2532 25.3595 12.8615 25.6322 13.5332 25.6322C14.2049 25.6322 14.8132 25.3595 15.2535 24.9185C15.6937 24.4774 15.9659 23.8685 15.9659 23.195C15.9659 22.522 15.6937 21.9126 15.2535 21.4715ZM11.2233 16.4153L12.008 11.5518C12.0807 11.1024 12.3077 10.7149 12.6312 10.4394C12.9552 10.1629 13.3729 10 13.8252 10H22.1748C22.6271 10 23.0448 10.1634 23.3688 10.4394C23.6923 10.7149 23.9193 11.103 23.992 11.5518L24.7767 16.4153H26.5779C26.811 16.4153 27 16.6047 27 16.8382C27 17.0717 26.811 17.261 26.5779 17.261H9.42208C9.189 17.261 9 17.0717 9 16.8382C9 16.6047 9.189 16.4153 9.42208 16.4153H11.2233Z" fill="white"/>
</svg>
