<svg width="44" height="44" viewBox="0 0 44 44" fill="none" xmlns="http://www.w3.org/2000/svg">
<circle cx="22" cy="22" r="22" fill="#A2190A"/>
<path d="M15.5883 31.219C14.792 31.219 14.0169 30.9047 13.4514 30.3391C12.8859 29.7736 12.5716 29.019 12.5716 28.2225V28.076C12.5716 27.7617 12.6346 27.4261 12.7181 27.1331L13.9335 23.4665C14.017 23.2152 14.269 23.0474 14.5203 23.0474H22.0001C22.1679 23.0474 22.3357 22.9844 22.4404 22.8592C22.5665 22.7331 22.6287 22.5866 22.6287 22.4189C22.6287 22.0628 22.3561 21.7903 22.0001 21.7903H14.5406C14.2681 21.7903 14.0381 21.6225 13.9538 21.3712L12.7179 17.7259C12.6132 17.4117 12.5714 17.0974 12.5714 16.7831V16.6366C12.5714 14.9596 13.9333 13.619 15.5882 13.619C16.049 13.619 16.4893 13.7238 16.887 13.912L30.0037 20.1764C30.863 20.5954 31.4286 21.4548 31.4286 22.4181C31.4286 23.3822 30.863 24.2407 30.0037 24.6597L16.8879 30.9258C16.4893 31.114 16.0498 31.2188 15.5882 31.2188L15.5883 31.219Z" fill="white"/>
</svg>
