<svg width="18" height="17" viewBox="0 0 18 17" fill="none" xmlns="http://www.w3.org/2000/svg">
<path d="M14.9242 6.41531L14.1605 1.68374C14.1209 1.43863 13.9985 1.2283 13.8244 1.0798C13.6514 0.932404 13.4238 0.84518 13.1742 0.84518H4.82469C4.57452 0.84518 4.34751 0.932404 4.17449 1.0798C4.00037 1.2283 3.87804 1.43863 3.83837 1.68374L3.07466 6.41531H14.9242ZM7.78253 12.7721H10.2169C10.3117 12.0351 10.6506 11.3738 11.1498 10.8736C11.7427 10.2796 12.562 9.91196 13.4662 9.91196C14.371 9.91196 15.1898 10.2796 15.7827 10.8736C16.3756 11.4676 16.7426 12.2885 16.7426 13.1944C16.7426 14.1009 16.3756 14.9212 15.7827 15.5152C15.1898 16.1092 14.3705 16.4769 13.4662 16.4769C12.5615 16.4769 11.7427 16.1092 11.1498 15.5152C10.6506 15.0151 10.3117 14.3543 10.2169 13.6167H7.78253C7.68776 14.3537 7.34888 15.0151 6.84966 15.5152C6.25677 16.1092 5.43741 16.4769 4.5332 16.4769C3.62843 16.4769 2.80962 16.1092 2.21673 15.5152C1.62384 14.9212 1.25686 14.1003 1.25686 13.1944C1.25686 12.288 1.62384 11.4676 2.21673 10.8736C2.80962 10.2796 3.62898 9.91196 4.5332 9.91196C5.43796 9.91196 6.25677 10.2796 6.84966 10.8736C7.34888 11.3738 7.68776 12.0346 7.78253 12.7721ZM11.0346 13.1442C11.0368 13.1607 11.0379 13.1779 11.0379 13.195C11.0379 13.2121 11.0368 13.2292 11.0346 13.2458C11.0478 13.8988 11.3173 14.4884 11.7465 14.9185C12.1868 15.3595 12.7951 15.6322 13.4668 15.6322C14.1385 15.6322 14.7468 15.3595 15.1871 14.9185C15.6268 14.4774 15.8995 13.8685 15.8995 13.195C15.8995 12.522 15.6273 11.9126 15.1871 11.4715C14.7468 11.0304 14.1385 10.7577 13.4668 10.7577C12.7951 10.7577 12.1868 11.0304 11.7465 11.4715C11.3173 11.9015 11.0478 12.4911 11.0346 13.1442ZM6.25347 11.4715C5.81321 11.0304 5.20489 10.7577 4.5332 10.7577C3.86151 10.7577 3.25319 11.0304 2.81293 11.4715C2.37322 11.9126 2.10047 12.5215 2.10047 13.195C2.10047 13.8679 2.37267 14.4774 2.81293 14.9185C3.25319 15.3595 3.86151 15.6322 4.5332 15.6322C5.20489 15.6322 5.81321 15.3595 6.25347 14.9185C6.69373 14.4774 6.96593 13.8685 6.96593 13.195C6.96593 12.522 6.69373 11.9126 6.25347 11.4715ZM2.22334 6.41531L3.00799 1.5518C3.08072 1.10243 3.30774 0.714898 3.63119 0.439427C3.95518 0.162853 4.37285 0 4.82524 0H13.1748C13.6271 0 14.0448 0.163405 14.3688 0.439427C14.6923 0.714898 14.9193 1.10299 14.992 1.5518L15.7767 6.41531H17.5779C17.811 6.41531 18 6.60466 18 6.83818C18 7.07169 17.811 7.26104 17.5779 7.26104H0.422077C0.188998 7.26104 0 7.07169 0 6.83818C0 6.60466 0.188998 6.41531 0.422077 6.41531H2.22334Z" fill="#97A6B5"/>
</svg>
